<svg width="168" height="24" viewBox="0 0 168 24" fill="none" xmlns="http://www.w3.org/2000/svg">
<g clip-path="url(#clip0_2_2)">
<path d="M12.2475 16.9406C14.8887 16.9406 17.0297 14.7995 17.0297 12.1584C17.0297 9.51729 14.8887 7.37624 12.2475 7.37624C9.60642 7.37624 7.46536 9.51729 7.46536 12.1584C7.46536 14.7995 9.60642 16.9406 12.2475 16.9406Z" fill="url(#paint0_linear_2_2)" stroke="#F8AF18" stroke-width="0.5" stroke-miterlimit="10"/>
<path d="M12.2475 4.73921V1.91089M12.2475 22.4059V19.5776M17.4943 6.91168L19.4937 4.91227M5.00139 19.4046L7.00079 17.4051M7.00079 6.9299L5.00139 4.93049M19.4937 19.4046L17.4943 17.4051M4.82832 12.1584H2M22.4951 12.1584H19.6667" stroke="#FBBF24" stroke-width="3" stroke-miterlimit="10" stroke-linecap="round"/>
<path d="M30.6861 19L30.6861 4.45456L40.4872 4.45456L40.4872 6.99007L33.7614 6.99007L33.7614 10.456L39.983 10.456L39.983 12.9915L33.7614 12.9915L33.7614 16.4645L40.5156 16.4645L40.5156 19L30.6861 19ZM46.4038 8.09092L48.4066 11.9048L50.4592 8.09092L53.5629 8.09092L50.4023 13.5455L53.6481 19L50.5586 19L48.4066 15.2287L46.2901 19L43.1651 19L46.4038 13.5455L43.2788 8.09092L46.4038 8.09092ZM59.4119 19.206C58.7159 19.206 58.0956 19.0852 57.5511 18.8438C57.0066 18.5976 56.5758 18.2353 56.2585 17.7571C55.946 17.2742 55.7898 16.6728 55.7898 15.9531C55.7898 15.3471 55.901 14.8381 56.1236 14.4261C56.3461 14.0142 56.6491 13.6828 57.0327 13.4318C57.4162 13.1809 57.8518 12.9915 58.3395 12.8636C58.8319 12.7358 59.348 12.6458 59.8878 12.5938C60.5223 12.5275 61.0336 12.4659 61.4219 12.4091C61.8101 12.3476 62.0919 12.2576 62.267 12.1392C62.4422 12.0208 62.5298 11.8457 62.5298 11.6136L62.5298 11.571C62.5298 11.1212 62.3878 10.7732 62.1037 10.527C61.8243 10.2808 61.4266 10.1577 60.9105 10.1577C60.366 10.1577 59.9328 10.2784 59.6108 10.5199C59.2888 10.7566 59.0758 11.0549 58.9716 11.4148L56.1733 11.1875C56.3153 10.5246 56.5947 9.95172 57.0114 9.46876C57.428 8.98107 57.9654 8.60702 58.6236 8.3466C59.2865 8.08145 60.0535 7.94888 60.9247 7.94888C61.5308 7.94888 62.1108 8.0199 62.6648 8.16194C63.2235 8.30399 63.7183 8.52416 64.1491 8.82245C64.5848 9.12075 64.928 9.50427 65.179 9.97302C65.4299 10.437 65.5554 10.9934 65.5554 11.6421L65.5554 19L62.6861 19L62.6861 17.4872L62.6009 17.4872C62.4257 17.8281 62.1913 18.1288 61.8977 18.3892C61.6042 18.6449 61.2514 18.8461 60.8395 18.9929C60.4276 19.135 59.9517 19.206 59.4119 19.206ZM60.2784 17.1179C60.7235 17.1179 61.1165 17.0303 61.4574 16.8551C61.7983 16.6752 62.0658 16.4337 62.2599 16.1307C62.4541 15.8277 62.5511 15.4844 62.5511 15.1009L62.5511 13.9432C62.4564 14.0047 62.3262 14.0616 62.1605 14.1136C61.9995 14.161 61.8172 14.206 61.6136 14.2486C61.41 14.2865 61.2064 14.322 61.0028 14.3551C60.7992 14.3835 60.6146 14.4096 60.4489 14.4333C60.0938 14.4853 59.7836 14.5682 59.5185 14.6818C59.2533 14.7955 59.0473 14.9493 58.9006 15.1435C58.7538 15.3329 58.6804 15.5696 58.6804 15.8537C58.6804 16.2656 58.8295 16.5805 59.1278 16.7983C59.4309 17.0114 59.8144 17.1179 60.2784 17.1179ZM73.8317 19.2131C72.7143 19.2131 71.7531 18.9763 70.9482 18.5029C70.148 18.0246 69.5324 17.3618 69.1016 16.5142C68.6754 15.6667 68.4624 14.6913 68.4624 13.5881C68.4624 12.4707 68.6778 11.4905 69.1087 10.6477C69.5443 9.8002 70.1622 9.13969 70.9624 8.6662C71.7625 8.18798 72.7143 7.94888 73.8175 7.94888C74.7692 7.94888 75.6025 8.1217 76.3175 8.46734C77.0324 8.81298 77.5982 9.29831 78.0149 9.92331C78.4316 10.5483 78.6612 11.2822 78.7038 12.125L75.8487 12.125C75.7682 11.5805 75.5552 11.1425 75.2095 10.8111C74.8686 10.4749 74.4212 10.3068 73.8672 10.3068C73.3984 10.3068 72.9889 10.4347 72.6385 10.6904C72.2929 10.9413 72.023 11.3083 71.8288 11.7912C71.6347 12.2742 71.5376 12.8589 71.5376 13.5455C71.5376 14.2415 71.6323 14.8333 71.8217 15.321C72.0159 15.8087 72.2881 16.1804 72.6385 16.4361C72.9889 16.6918 73.3984 16.8196 73.8672 16.8196C74.2128 16.8196 74.523 16.7486 74.7976 16.6065C75.0769 16.4645 75.3066 16.2585 75.4865 15.9886C75.6712 15.714 75.7919 15.385 75.8487 15.0014L78.7038 15.0014C78.6565 15.8348 78.4292 16.5687 78.022 17.2031C77.6196 17.8329 77.0632 18.3253 76.353 18.6804C75.6428 19.0355 74.8023 19.2131 73.8317 19.2131ZM84.386 19L80.2241 4.45456L83.5835 4.45456L85.9911 14.5611L86.1119 14.5611L88.7681 4.45456L91.6445 4.45455L94.2937 14.5824L94.4215 14.5824L96.8292 4.45455L100.189 4.45455L96.0266 19L93.0295 19L90.2596 9.49007L90.146 9.49007L87.3832 19L84.386 19ZM106.577 19.2131C105.455 19.2131 104.489 18.9858 103.68 18.5313C102.875 18.072 102.254 17.4233 101.819 16.5852C101.383 15.7424 101.165 14.7457 101.165 13.5952C101.165 12.473 101.383 11.4882 101.819 10.6406C102.254 9.7931 102.868 9.13258 103.658 8.6591C104.454 8.18561 105.387 7.94887 106.457 7.94887C107.176 7.94887 107.846 8.06488 108.467 8.29688C109.092 8.52416 109.636 8.86743 110.1 9.32671C110.569 9.78599 110.933 10.3636 111.194 11.0597C111.454 11.751 111.585 12.5606 111.585 13.4886L111.585 14.3196L102.373 14.3196L102.373 12.4446L108.737 12.4446C108.737 12.009 108.642 11.6231 108.452 11.2869C108.263 10.9508 108 10.688 107.664 10.4986C107.333 10.3045 106.947 10.2074 106.506 10.2074C106.047 10.2074 105.64 10.3139 105.285 10.527C104.934 10.7353 104.66 11.0171 104.461 11.3722C104.262 11.7225 104.16 12.1132 104.156 12.544L104.156 14.3267C104.156 14.8665 104.255 15.3329 104.454 15.7259C104.657 16.1189 104.944 16.4219 105.313 16.635C105.683 16.848 106.121 16.9546 106.627 16.9546C106.963 16.9546 107.271 16.9072 107.55 16.8125C107.83 16.7178 108.069 16.5758 108.268 16.3864C108.467 16.197 108.618 15.965 108.722 15.6903L111.521 15.875C111.379 16.5474 111.087 17.1345 110.647 17.6364C110.211 18.1335 109.648 18.5218 108.957 18.8011C108.27 19.0758 107.477 19.2131 106.577 19.2131ZM117.67 19.206C116.974 19.206 116.353 19.0852 115.809 18.8438C115.264 18.5975 114.834 18.2353 114.516 17.7571C114.204 17.2742 114.048 16.6728 114.048 15.9531C114.048 15.3471 114.159 14.8381 114.381 14.4261C114.604 14.0142 114.907 13.6828 115.29 13.4318C115.674 13.1809 116.11 12.9915 116.597 12.8636C117.09 12.7358 117.606 12.6458 118.146 12.5938C118.78 12.5275 119.291 12.4659 119.68 12.4091C120.068 12.3475 120.35 12.2576 120.525 12.1392C120.7 12.0208 120.788 11.8457 120.788 11.6136L120.788 11.571C120.788 11.1212 120.646 10.7732 120.362 10.527C120.082 10.2808 119.684 10.1577 119.168 10.1577C118.624 10.1577 118.191 10.2784 117.869 10.5199C117.547 10.7566 117.334 11.0549 117.229 11.4148L114.431 11.1875C114.573 10.5246 114.853 9.95171 115.269 9.46876C115.686 8.98107 116.223 8.60701 116.881 8.3466C117.544 8.08145 118.311 7.94887 119.183 7.94887C119.789 7.94887 120.369 8.01989 120.923 8.16194C121.481 8.30398 121.976 8.52415 122.407 8.82245C122.843 9.12075 123.186 9.50427 123.437 9.97302C123.688 10.437 123.813 10.9934 123.813 11.6421L123.813 19L120.944 19L120.944 17.4872L120.859 17.4872C120.683 17.8281 120.449 18.1288 120.156 18.3892C119.862 18.6449 119.509 18.8461 119.097 18.9929C118.685 19.135 118.21 19.206 117.67 19.206ZM118.536 17.1179C118.981 17.1179 119.374 17.0303 119.715 16.8551C120.056 16.6752 120.324 16.4337 120.518 16.1307C120.712 15.8277 120.809 15.4844 120.809 15.1009L120.809 13.9432C120.714 14.0047 120.584 14.0616 120.418 14.1136C120.257 14.161 120.075 14.206 119.871 14.2486C119.668 14.2865 119.464 14.322 119.261 14.3551C119.057 14.3835 118.872 14.4096 118.707 14.4332C118.352 14.4853 118.041 14.5682 117.776 14.6818C117.511 14.7955 117.305 14.9493 117.158 15.1435C117.012 15.3329 116.938 15.5696 116.938 15.8537C116.938 16.2656 117.087 16.5805 117.386 16.7983C117.689 17.0114 118.072 17.1179 118.536 17.1179ZM132.963 8.09091L132.963 10.3636L126.393 10.3636L126.393 8.09092L132.963 8.09091ZM127.885 5.47728L130.911 5.47728L130.911 15.6477C130.911 15.9271 130.953 16.1449 131.038 16.3011C131.124 16.4527 131.242 16.5592 131.393 16.6207C131.55 16.6823 131.73 16.7131 131.933 16.7131C132.075 16.7131 132.217 16.7012 132.359 16.6776C132.501 16.6492 132.61 16.6278 132.686 16.6136L133.162 18.8651C133.01 18.9124 132.797 18.9669 132.523 19.0284C132.248 19.0947 131.914 19.1349 131.521 19.1492C130.792 19.1776 130.153 19.0805 129.604 18.858C129.059 18.6354 128.635 18.2898 128.332 17.821C128.029 17.3523 127.88 16.7604 127.885 16.0455L127.885 5.47728ZM139.194 12.6932L139.194 19L136.168 19L136.168 4.45455L139.109 4.45455L139.109 10.0156L139.237 10.0156C139.483 9.37169 139.88 8.86743 140.43 8.50285C140.979 8.13353 141.668 7.94887 142.496 7.94887C143.254 7.94887 143.915 8.11459 144.478 8.44603C145.046 8.77273 145.487 9.24385 145.799 9.85938C146.116 10.4702 146.272 11.2017 146.268 12.054L146.268 19L143.242 19L143.242 12.5938C143.247 11.9214 143.076 11.3982 142.731 11.0242C142.39 10.6501 141.912 10.4631 141.296 10.4631C140.884 10.4631 140.52 10.5507 140.202 10.7259C139.89 10.901 139.644 11.1567 139.464 11.4929C139.289 11.8243 139.199 12.2244 139.194 12.6932ZM154.62 19.2131C153.498 19.2131 152.532 18.9858 151.723 18.5313C150.918 18.072 150.297 17.4233 149.862 16.5852C149.426 15.7424 149.208 14.7457 149.208 13.5952C149.208 12.473 149.426 11.4882 149.862 10.6406C150.297 9.79309 150.911 9.13258 151.701 8.65909C152.497 8.18561 153.43 7.94887 154.5 7.94887C155.219 7.94887 155.889 8.06487 156.51 8.29688C157.135 8.52415 157.679 8.86743 158.143 9.32671C158.612 9.78599 158.976 10.3636 159.237 11.0597C159.497 11.751 159.627 12.5606 159.627 13.4886L159.627 14.3196L150.416 14.3196L150.416 12.4446L156.779 12.4446C156.779 12.009 156.685 11.6231 156.495 11.2869C156.306 10.9508 156.043 10.688 155.707 10.4986C155.376 10.3045 154.99 10.2074 154.549 10.2074C154.09 10.2074 153.683 10.3139 153.328 10.527C152.977 10.7353 152.703 11.017 152.504 11.3722C152.305 11.7225 152.203 12.1132 152.199 12.544L152.199 14.3267C152.199 14.8665 152.298 15.3329 152.497 15.7259C152.7 16.1188 152.987 16.4219 153.356 16.6349C153.725 16.848 154.163 16.9545 154.67 16.9545C155.006 16.9545 155.314 16.9072 155.593 16.8125C155.873 16.7178 156.112 16.5758 156.311 16.3864C156.51 16.197 156.661 15.965 156.765 15.6903L159.564 15.875C159.422 16.5474 159.13 17.1345 158.69 17.6364C158.254 18.1335 157.691 18.5218 157 18.8011C156.313 19.0758 155.52 19.2131 154.62 19.2131ZM162.602 19L162.602 8.09091L165.535 8.09091L165.535 9.99432L165.649 9.99432C165.848 9.31724 166.181 8.80587 166.65 8.46023C167.119 8.10985 167.659 7.93466 168.27 7.93466C168.421 7.93466 168.584 7.94413 168.76 7.96307C168.935 7.98201 169.089 8.00805 169.221 8.0412L169.221 10.7259C169.079 10.6832 168.883 10.6454 168.632 10.6122C168.381 10.5791 168.151 10.5625 167.943 10.5625C167.498 10.5625 167.1 10.6596 166.75 10.8537C166.404 11.0431 166.129 11.3082 165.926 11.6492C165.727 11.9901 165.627 12.3831 165.627 12.8281L165.627 19L162.602 19Z" fill="white"/>
</g>
<defs>
<linearGradient id="paint0_linear_2_2" x1="9.85645" y1="8.01841" x2="14.6386" y2="16.2984" gradientUnits="userSpaceOnUse">
<stop stop-color="#FBBF24"/>
<stop offset="0.45" stop-color="#FBBF24"/>
<stop offset="1" stop-color="#F59E0B"/>
</linearGradient>
<clipPath id="clip0_2_2">
<rect width="168" height="24" fill="white"/>
</clipPath>
</defs>
</svg>
